Run_20001
nRows=4
nColumns=164

# SIMM Motion File Header:
name Run_20001
datacolumns 164
datarows 4
otherdata 1
range 2.65833300 2.68333300
endheader
time	pelvis_tilt	pelvis_list	pelvis_rotation	pelvis_tx	pelvis_ty	pelvis_tz	hip_flexion_r	hip_adduction_r	hip_rotation_r	knee_angle_r	ankle_angle_r	hip_flexion_l	hip_adduction_l	hip_rotation_l	knee_angle_l	ankle_angle_l	lumbar_extension	lumbar_bending	lumbar_rotation	arm_flex_r	arm_add_r	arm_rot_r	elbow_flex_r	pro_sup_r	arm_flex_l	arm_add_l	arm_rot_l	elbow_flex_l	pro_sup_l	subtalar_angle_r	mtp_angle_r	subtalar_angle_l	mtp_angle_l	wrist_flex_r	wrist_dev_r	wrist_flex_l	wrist_dev_l	LASI_tx	LASI_ty	LASI_tz	RASI_tx	RASI_ty	RASI_tz	LPSI_tx	LPSI_ty	LPSI_tz	RPSI_tx	RPSI_ty	RPSI_tz	RTH1_tx	RTH1_ty	RTH1_tz	RTH2_tx	RTH2_ty	RTH2_tz	RTH3_tx	RTH3_ty	RTH3_tz	LTH1_tx	LTH1_ty	LTH1_tz	LTH2_tx	LTH2_ty	LTH2_tz	LTH3_tx	LTH3_ty	LTH3_tz	RTB1_tx	RTB1_ty	RTB1_tz	RTB2_tx	RTB2_ty	RTB2_tz	RTB3_tx	RTB3_ty	RTB3_tz	LTB1_tx	LTB1_ty	LTB1_tz	LTB2_tx	LTB2_ty	LTB2_tz	LTB3_tx	LTB3_ty	LTB3_tz	RCAL_tx	RCAL_ty	RCAL_tz	RTOE_tx	RTOE_ty	RTOE_tz	RMT5_tx	RMT5_ty	RMT5_tz	LCAL_tx	LCAL_ty	LCAL_tz	LTOE_tx	LTOE_ty	LTOE_tz	LMT5_tx	LMT5_ty	LMT5_tz	LACR_tx	LACR_ty	LACR_tz	RACR_tx	RACR_ty	RACR_tz	CLAV_tx	CLAV_ty	CLAV_tz	C7_tx	C7_ty	C7_tz	RUA1_tx	RUA1_ty	RUA1_tz	RUA2_tx	RUA2_ty	RUA2_tz	RUA3_tx	RUA3_ty	RUA3_tz	RLEL_tx	RLEL_ty	RLEL_tz	RMEL_tx	RMEL_ty	RMEL_tz	LUA1_tx	LUA1_ty	LUA1_tz	LUA2_tx	LUA2_ty	LUA2_tz	LUA3_tx	LUA3_ty	LUA3_tz	LLEL_tx	LLEL_ty	LLEL_tz	LMEL_tx	LMEL_ty	LMEL_tz	RFAsuperior_tx	RFAsuperior_ty	RFAsuperior_tz	RFAradius_tx	RFAradius_ty	RFAradius_tz	RFAulna_tx	RFAulna_ty	RFAulna_tz	LFAsuperior_tx	LFAsuperior_ty	LFAsuperior_tz	LFAradius_tx	LFAradius_ty	LFAradius_tz	LFAulna_tx	LFAulna_ty	LFAulna_tz
      2.65833300	     -4.11510916	     -2.87465503	     -3.05419300	      1.07786136	      0.98573305	     -0.31504331	      6.39649584	     11.02621321	      9.51860495	    -33.35706473	     13.48819428	     38.72223167	     -3.97772643	     -1.04442191	    -79.60783281	     -3.02701836	     -6.76280351	      5.54721388	     13.79351905	    -22.09039825	    -10.58949337	    -11.42660637	     84.05144400	     75.10112234	    -40.66770956	    -16.94922024	     -1.39009128	     93.13284630	     86.82799717	      0.00000000	      0.00000000	      0.00000000	      0.00000000	      0.00000000	      0.00000000	      0.00000000	      0.00000000	      1.09040003	      0.99781926	     -0.43065982	      1.07893018	      0.99564562	     -0.18957437	      0.92062685	      1.03611133	     -0.37613289	      0.91614229	      1.03579310	     -0.27726214	      1.00874913	      0.83588114	     -0.15262436	      1.07637808	      0.69171029	     -0.18998479	      1.00998411	      0.60084013	     -0.20769128	      1.07424180	      0.83584312	     -0.49853987	      1.19505258	      0.78545437	     -0.48059373	      1.18898776	      0.64934675	     -0.47589133	      1.00736969	      0.36683982	     -0.28539938	      0.93741722	      0.33403768	     -0.22647084	      0.90670581	      0.21656996	     -0.29468302	      1.21224043	      0.43861867	     -0.42085843	      1.11130622	      0.39955049	     -0.46639135	      1.06658298	      0.30681810	     -0.40598523	      0.72836577	      0.12476922	     -0.31230027	      0.93185859	      0.07735814	     -0.34667562	      0.91679213	      0.04430954	     -0.24165701	      0.89392295	      0.28868519	     -0.38726112	      1.04117393	      0.14115207	     -0.37449141	      1.00986256	      0.13153440	     -0.47529908	      1.04155635	      1.48635105	     -0.48538955	      1.08957447	      1.46144367	     -0.12247791	      1.14153677	      1.42611848	     -0.29452681	      1.02743638	      1.51207825	     -0.30774188	      1.06713483	      1.37211353	     -0.08015136	      1.07290673	      1.28264447	     -0.09900802	      0.98722461	      1.28224957	     -0.06992995	      0.96414858	      1.17020488	     -0.04993536	      0.94204797	      1.16806611	     -0.11462087	      0.98361484	      1.43185819	     -0.53015101	      0.91811915	      1.39663812	     -0.48801602	      0.93455393	      1.34000567	     -0.54988358	      0.82451431	      1.28060024	     -0.56560810	      0.81149672	      1.27868340	     -0.49348052	      1.05540234	      1.13587175	     -0.05385747	      1.19240315	      1.03590002	     -0.11784645	      1.14657971	      0.98532665	     -0.11185579	      0.88845867	      1.22508568	     -0.57661337	      1.01967307	      1.08394149	     -0.52530105	      0.96226386	      1.05066242	     -0.54337641
      2.66666700	     -4.08247269	     -2.10094094	     -2.76985685	      1.07840675	      0.99293914	     -0.31521443	      4.69520443	      9.94223159	      9.62622895	    -31.72992084	     11.01070925	     38.73955864	     -2.98534870	     -1.15730108	    -75.95542855	     -3.43442281	     -6.69388795	      4.57987858	     13.99905901	    -22.26103582	    -10.60503248	    -11.44172515	     86.47721460	     76.74727023	    -41.52057323	    -17.29799380	     -1.94476702	     94.15628135	     87.00288544	      0.00000000	      0.00000000	      0.00000000	      0.00000000	      0.00000000	      0.00000000	      0.00000000	      0.00000000	      1.09026428	      1.00564137	     -0.43063051	      1.07963189	      1.00110350	     -0.18984140	      0.92083867	      1.04341521	     -0.37536383	      0.91656789	      1.04268570	     -0.27603799	      1.00701667	      0.84180610	     -0.15278307	      1.07058975	      0.69634800	     -0.19088186	      1.00156646	      0.60695663	     -0.20698923	      1.07616569	      0.84526112	     -0.49932825	      1.19572991	      0.79481947	     -0.47939752	      1.18954916	      0.65800191	     -0.47533408	      0.99465964	      0.37257299	     -0.28401640	      0.92428850	      0.33996792	     -0.22559537	      0.89391367	      0.22235254	     -0.29296584	      1.22077358	      0.44467025	     -0.42000133	      1.12244191	      0.39892503	     -0.46611743	      1.08352839	      0.30360115	     -0.40589872	      0.71572498	      0.13313232	     -0.31134695	      0.91672518	      0.07782927	     -0.34633492	      0.90066203	      0.04419415	     -0.24170477	      0.91263675	      0.27459929	     -0.38645057	      1.06847449	      0.13620404	     -0.37379877	      1.03760231	      0.12414339	     -0.47400618	      1.04010921	      1.49353073	     -0.48525092	      1.09181767	      1.46919370	     -0.12346029	      1.14187343	      1.43315578	     -0.29595461	      1.02786800	      1.51860139	     -0.30801535	      1.06952538	      1.38033461	     -0.08055925	      1.07499944	      1.29056558	     -0.09936426	      0.98985446	      1.29073514	     -0.06854299	      0.96702284	      1.17864416	     -0.04825424	      0.94544592	      1.17657838	     -0.11336673	      0.98116626	      1.44065465	     -0.52955534	      0.91591771	      1.40617410	     -0.48694148	      0.93112972	      1.34919083	     -0.54936854	      0.82037085	      1.29091509	     -0.56379902	      0.80806541	      1.28900165	     -0.49148513	      1.05936147	      1.14741974	     -0.05411014	      1.19844758	      1.05350136	     -0.12225096	      1.15533030	      1.00086192	     -0.11417651	      0.88401766	      1.23565987	     -0.57578732	      1.01608147	      1.09491881	     -0.52635343	      0.95892547	      1.06117714	     -0.54418451
      2.67500000	     -3.94036629	     -1.28652383	     -2.47105827	      1.07908765	      1.00039773	     -0.31546455	      2.97427709	      8.77377430	      9.53396471	    -30.19646748	      8.35814954	     38.41521781	     -1.93242455	     -1.29000755	    -71.95751332	     -4.13659515	     -6.75882883	      3.56986621	     14.13473082	    -22.47756037	    -10.64491267	    -11.40415281	     88.81079853	     78.31466870	    -42.30246169	    -17.63291403	     -2.44828641	     95.15153586	     87.11270379	      0.00000000	      0.00000000	      0.00000000	      0.00000000	      0.00000000	      0.00000000	      0.00000000	      0.00000000	      1.09024538	      1.01376895	     -0.43075618	      1.08038220	      1.00687573	     -0.19022878	      0.92120870	      1.05070483	     -0.37458540	      0.91707869	      1.04958446	     -0.27495518	      1.00597011	      0.84791118	     -0.15262818	      1.06509031	      0.70127482	     -0.19142918	      0.99366066	      0.61340529	     -0.20594705	      1.07798899	      0.85489736	     -0.50006041	      1.19600632	      0.80390765	     -0.47846561	      1.18872616	      0.66587327	     -0.47417296	      0.98279209	      0.37856488	     -0.28214026	      0.91180574	      0.34623876	     -0.22444349	      0.88184712	      0.22835738	     -0.29115422	      1.22833070	      0.45039904	     -0.41940827	      1.13331601	      0.39786092	     -0.46590182	      1.10057696	      0.30025387	     -0.40560457	      0.70399666	      0.14215683	     -0.31027970	      0.90193517	      0.07826110	     -0.34574698	      0.88454031	      0.04457921	     -0.24118065	      0.93230871	      0.26072972	     -0.38566081	      1.09583503	      0.13157217	     -0.37247659	      1.06538929	      0.11671747	     -0.47227770	      1.03893971	      1.50063203	     -0.48510420	      1.09402826	      1.47691601	     -0.12447732	      1.14219925	      1.44014806	     -0.29724774	      1.02839839	      1.52515412	     -0.30830541	      1.07196075	      1.38856479	     -0.08096937	      1.07687504	      1.29853933	     -0.09958135	      0.99221629	      1.29951101	     -0.06717580	      0.96954716	      1.18730933	     -0.04650104	      0.94832684	      1.18531214	     -0.11202924	      0.97903956	      1.44937323	     -0.52897857	      0.91411655	      1.41565595	     -0.48588796	      0.92811035	      1.35831941	     -0.54891799	      0.81673605	      1.30102912	     -0.56218851	      0.80508055	      1.29921566	     -0.48966485	      1.06282702	      1.15914426	     -0.05437652	      1.20334557	      1.07072498	     -0.12641216	      1.16297517	      1.01625580	     -0.11639323	      0.88009737	      1.24601005	     -0.57506124	      1.01306449	      1.10578909	     -0.52716169	      0.95615867	      1.07156168	     -0.54472562
      2.68333300	     -3.74966883	     -0.46715070	     -2.18858339	      1.07984335	      1.00786818	     -0.31572361	      1.31755921	      7.58213938	      9.26594726	    -28.80090672	      5.52362282	     37.82751328	     -0.87177780	     -1.41447652	    -67.65841353	     -5.14384999	     -6.89073551	      2.55303243	     14.21043128	    -22.74249859	    -10.72914716	    -11.26107604	     91.05756108	     79.66933684	    -43.03869343	    -17.93250724	     -2.92113137	     96.11997713	     87.17539846	      0.00000000	      0.00000000	      0.00000000	      0.00000000	      0.00000000	      0.00000000	      0.00000000	      0.00000000	      1.09034413	      1.02199821	     -0.43100789	      1.08110823	      1.01277131	     -0.19063150	      0.92168101	      1.05789830	     -0.37381941	      0.91775528	      1.05637205	     -0.27407270	      1.00533235	      0.85403123	     -0.15227025	      1.05988155	      0.70640250	     -0.19155359	      0.98622970	      0.62008506	     -0.20467964	      1.07951767	      0.86430690	     -0.50046111	      1.19586338	      0.81253702	     -0.47788230	      1.18662271	      0.67284382	     -0.47236360	      0.97182278	      0.38463327	     -0.27992184	      0.90010109	      0.35277563	     -0.22292697	      0.87069605	      0.23448627	     -0.28911975	      1.23489993	      0.45561582	     -0.41914157	      1.14395374	      0.39636002	     -0.46571871	      1.11763440	      0.29690550	     -0.40513700	      0.69324970	      0.15171747	     -0.30911793	      0.88746411	      0.07866185	     -0.34501158	      0.86834723	      0.04533790	     -0.24032218	      0.95274765	      0.24733128	     -0.38500383	      1.12295471	      0.12729035	     -0.37064688	      1.09314602	      0.10936847	     -0.47011586	      1.03805077	      1.50751885	     -0.48498306	      1.09612613	      1.48449003	     -0.12563284	      1.14249814	      1.44698783	     -0.29842352	      1.02902516	      1.53168032	     -0.30863290	      1.07436672	      1.39674152	     -0.08141011	      1.07854735	      1.30653803	     -0.09963133	      0.99430319	      1.30845957	     -0.06587059	      0.97177567	      1.19604923	     -0.04470435	      0.94999051	      1.19406245	     -0.11040411	      0.97725475	      1.45781287	     -0.52841360	      0.91275692	      1.42484233	     -0.48482341	      0.92546848	      1.36724848	     -0.54852137	      0.81356785	      1.31077551	     -0.56082490	      0.80249581	      1.30920459	     -0.48799940	      1.06580774	      1.17083487	     -0.05465902	      1.20725624	      1.08731404	     -0.13034882	      1.16959544	      1.03133221	     -0.11860886	      0.87661347	      1.25595916	     -0.57445872	      1.01056961	      1.11638519	     -0.52773898	      0.95391526	      1.08167899	     -0.54500463
